<svg width="204" height="50" viewBox="0 0 204 50" fill="none" xmlns="http://www.w3.org/2000/svg">
<path d="M1.26511 2.12762L2.59046 4.25528H8.01235H13.4342L20.9044 17.8191C25.0009 25.2659 28.5553 31.3829 28.736 31.3829C28.9168 31.3829 32.5916 25.2659 36.8086 17.8191L44.4595 4.25528H49.7609H55.0623L56.0865 2.39358C56.6287 1.32975 57.1106 0.372299 57.1106 0.265917C57.1106 0.106342 53.6767 -4.00543e-05 49.3995 -4.00543e-05H41.7486L35.423 11.1702C31.9289 17.2872 28.977 22.3404 28.7963 22.3404C28.6155 22.3404 25.6636 17.2872 22.1695 11.1702L15.844 -4.00543e-05H7.95211H0L1.26511 2.12762Z" fill="#C8E0D8"/>
<path d="M5.30145 8.77654C5.30145 9.30845 28.4951 49.9999 28.7963 49.9999C29.0975 49.9999 52.2912 9.30845 52.2912 8.77654C52.2912 8.61697 51.267 8.51058 50.0019 8.51058H47.7729L38.4352 24.9999C33.3146 34.0957 28.977 41.4893 28.7963 41.4893C28.6156 41.4893 24.2781 34.0957 19.1574 24.9999L9.8197 8.51058H7.5907C6.32559 8.51058 5.30145 8.61697 5.30145 8.77654Z" fill="#C8E0D8"/>
<path d="M70.9006 35.5L61.8406 14.5H67.0906L75.0106 33.1H71.9206L79.9606 14.5H84.7906L75.7006 35.5H70.9006ZM86.4776 35.5V19.36H91.1576V35.5H86.4776ZM88.8176 17.11C87.9576 17.11 87.2576 16.86 86.7176 16.36C86.1776 15.86 85.9076 15.24 85.9076 14.5C85.9076 13.76 86.1776 13.14 86.7176 12.64C87.2576 12.14 87.9576 11.89 88.8176 11.89C89.6776 11.89 90.3776 12.13 90.9176 12.61C91.4576 13.07 91.7276 13.67 91.7276 14.41C91.7276 15.19 91.4576 15.84 90.9176 16.36C90.3976 16.86 89.6976 17.11 88.8176 17.11ZM102.101 35.74C100.201 35.74 98.7211 35.26 97.6611 34.3C96.6011 33.32 96.0711 31.87 96.0711 29.95V15.79H100.751V29.89C100.751 30.57 100.931 31.1 101.291 31.48C101.651 31.84 102.141 32.02 102.761 32.02C103.501 32.02 104.131 31.82 104.651 31.42L105.911 34.72C105.431 35.06 104.851 35.32 104.171 35.5C103.511 35.66 102.821 35.74 102.101 35.74ZM93.5811 23.32V19.72H104.771V23.32H93.5811ZM115.72 35.74C114 35.74 112.47 35.38 111.13 34.66C109.81 33.94 108.76 32.96 107.98 31.72C107.22 30.46 106.84 29.03 106.84 27.43C106.84 25.81 107.22 24.38 107.98 23.14C108.76 21.88 109.81 20.9 111.13 20.2C112.47 19.48 114 19.12 115.72 19.12C117.42 19.12 118.94 19.48 120.28 20.2C121.62 20.9 122.67 21.87 123.43 23.11C124.19 24.35 124.57 25.79 124.57 27.43C124.57 29.03 124.19 30.46 123.43 31.72C122.67 32.96 121.62 33.94 120.28 34.66C118.94 35.38 117.42 35.74 115.72 35.74ZM115.72 31.9C116.5 31.9 117.2 31.72 117.82 31.36C118.44 31 118.93 30.49 119.29 29.83C119.65 29.15 119.83 28.35 119.83 27.43C119.83 26.49 119.65 25.69 119.29 25.03C118.93 24.37 118.44 23.86 117.82 23.5C117.2 23.14 116.5 22.96 115.72 22.96C114.94 22.96 114.24 23.14 113.62 23.5C113 23.86 112.5 24.37 112.12 25.03C111.76 25.69 111.58 26.49 111.58 27.43C111.58 28.35 111.76 29.15 112.12 29.83C112.5 30.49 113 31 113.62 31.36C114.24 31.72 114.94 31.9 115.72 31.9ZM127.698 35.5V19.36H132.168V23.92L131.538 22.6C132.018 21.46 132.788 20.6 133.848 20.02C134.908 19.42 136.198 19.12 137.718 19.12V23.44C137.518 23.42 137.338 23.41 137.178 23.41C137.018 23.39 136.848 23.38 136.668 23.38C135.388 23.38 134.348 23.75 133.548 24.49C132.768 25.21 132.378 26.34 132.378 27.88V35.5H127.698ZM158.654 35.74C157.294 35.74 156.104 35.44 155.084 34.84C154.064 34.24 153.264 33.33 152.684 32.11C152.124 30.87 151.844 29.31 151.844 27.43C151.844 25.53 152.114 23.97 152.654 22.75C153.194 21.53 153.974 20.62 154.994 20.02C156.014 19.42 157.234 19.12 158.654 19.12C160.174 19.12 161.534 19.47 162.734 20.17C163.954 20.85 164.914 21.81 165.614 23.05C166.334 24.29 166.694 25.75 166.694 27.43C166.694 29.13 166.334 30.6 165.614 31.84C164.914 33.08 163.954 34.04 162.734 34.72C161.534 35.4 160.174 35.74 158.654 35.74ZM149.114 41.32V19.36H153.584V22.66L153.494 27.46L153.794 32.23V41.32H149.114ZM157.844 31.9C158.624 31.9 159.314 31.72 159.914 31.36C160.534 31 161.024 30.49 161.384 29.83C161.764 29.15 161.954 28.35 161.954 27.43C161.954 26.49 161.764 25.69 161.384 25.03C161.024 24.37 160.534 23.86 159.914 23.5C159.314 23.14 158.624 22.96 157.844 22.96C157.064 22.96 156.364 23.14 155.744 23.5C155.124 23.86 154.634 24.37 154.274 25.03C153.914 25.69 153.734 26.49 153.734 27.43C153.734 28.35 153.914 29.15 154.274 29.83C154.634 30.49 155.124 31 155.744 31.36C156.364 31.72 157.064 31.9 157.844 31.9ZM179.464 35.5V32.35L179.164 31.66V26.02C179.164 25.02 178.854 24.24 178.234 23.68C177.634 23.12 176.704 22.84 175.444 22.84C174.584 22.84 173.734 22.98 172.894 23.26C172.074 23.52 171.374 23.88 170.794 24.34L169.114 21.07C169.994 20.45 171.054 19.97 172.294 19.63C173.534 19.29 174.794 19.12 176.074 19.12C178.534 19.12 180.444 19.7 181.804 20.86C183.164 22.02 183.844 23.83 183.844 26.29V35.5H179.464ZM174.544 35.74C173.284 35.74 172.204 35.53 171.304 35.11C170.404 34.67 169.714 34.08 169.234 33.34C168.754 32.6 168.514 31.77 168.514 30.85C168.514 29.89 168.744 29.05 169.204 28.33C169.684 27.61 170.434 27.05 171.454 26.65C172.474 26.23 173.804 26.02 175.444 26.02H179.734V28.75H175.954C174.854 28.75 174.094 28.93 173.674 29.29C173.274 29.65 173.074 30.1 173.074 30.64C173.074 31.24 173.304 31.72 173.764 32.08C174.244 32.42 174.894 32.59 175.714 32.59C176.494 32.59 177.194 32.41 177.814 32.05C178.434 31.67 178.884 31.12 179.164 30.4L179.884 32.56C179.544 33.6 178.924 34.39 178.024 34.93C177.124 35.47 175.964 35.74 174.544 35.74ZM186.969 35.5V32.68L196.509 21.4L197.319 22.96H187.179V19.36H201.099V22.18L191.559 33.46L190.719 31.9H201.369V35.5H186.969Z" fill="#C8E0D8"/>
</svg>
